<mxfile host="app.diagrams.net" agent="Mozilla/5.0 (X11; Linux x86_64) AppleWebKit/537.36 (KHTML, like Gecko) Chrome/132.0.0.0 Safari/537.36 OPR/117.0.0.0" version="26.2.2">
  <diagram name="Page-1" id="YDXt2fmcOemhuKh-iClX">
    <mxGraphModel dx="1090" dy="633" grid="1" gridSize="10" guides="1" tooltips="1" connect="1" arrows="1" fold="1" page="1" pageScale="1" pageWidth="850" pageHeight="1100" math="0" shadow="0">
      <root>
        <mxCell id="0" />
        <mxCell id="1" parent="0" />
        <mxCell id="3ibLhJLtpGwH6AKdikq_-66" value="" style="rounded=0;whiteSpace=wrap;html=1;" parent="1" vertex="1">
          <mxGeometry x="590" y="550" width="100" height="220" as="geometry" />
        </mxCell>
        <mxCell id="3ibLhJLtpGwH6AKdikq_-4" value="" style="rounded=0;whiteSpace=wrap;html=1;" parent="1" vertex="1">
          <mxGeometry x="230" y="430" width="340" height="340" as="geometry" />
        </mxCell>
        <mxCell id="3ibLhJLtpGwH6AKdikq_-5" style="edgeStyle=orthogonalEdgeStyle;rounded=0;orthogonalLoop=1;jettySize=auto;html=1;exitX=0;exitY=0.25;exitDx=0;exitDy=0;entryX=1;entryY=0.5;entryDx=0;entryDy=0;" parent="1" source="3ibLhJLtpGwH6AKdikq_-1" target="3ibLhJLtpGwH6AKdikq_-2" edge="1">
          <mxGeometry relative="1" as="geometry">
            <Array as="points">
              <mxPoint x="340" y="580" />
              <mxPoint x="340" y="480" />
            </Array>
          </mxGeometry>
        </mxCell>
        <mxCell id="3ibLhJLtpGwH6AKdikq_-6" style="edgeStyle=orthogonalEdgeStyle;rounded=0;orthogonalLoop=1;jettySize=auto;html=1;exitX=1;exitY=0.5;exitDx=0;exitDy=0;entryX=0;entryY=0.5;entryDx=0;entryDy=0;" parent="1" source="3ibLhJLtpGwH6AKdikq_-1" target="3ibLhJLtpGwH6AKdikq_-3" edge="1">
          <mxGeometry relative="1" as="geometry" />
        </mxCell>
        <mxCell id="3ibLhJLtpGwH6AKdikq_-8" style="edgeStyle=orthogonalEdgeStyle;rounded=0;orthogonalLoop=1;jettySize=auto;html=1;exitX=0;exitY=0.5;exitDx=0;exitDy=0;entryX=1;entryY=0.5;entryDx=0;entryDy=0;" parent="1" source="3ibLhJLtpGwH6AKdikq_-1" target="3ibLhJLtpGwH6AKdikq_-7" edge="1">
          <mxGeometry relative="1" as="geometry">
            <Array as="points">
              <mxPoint x="360" y="600" />
              <mxPoint x="360" y="600" />
            </Array>
          </mxGeometry>
        </mxCell>
        <mxCell id="3ibLhJLtpGwH6AKdikq_-26" style="edgeStyle=orthogonalEdgeStyle;rounded=0;orthogonalLoop=1;jettySize=auto;html=1;entryX=0;entryY=0.5;entryDx=0;entryDy=0;exitX=1;exitY=0.25;exitDx=0;exitDy=0;" parent="1" source="3ibLhJLtpGwH6AKdikq_-1" target="3ibLhJLtpGwH6AKdikq_-20" edge="1">
          <mxGeometry relative="1" as="geometry">
            <Array as="points">
              <mxPoint x="460" y="580" />
              <mxPoint x="460" y="480" />
            </Array>
          </mxGeometry>
        </mxCell>
        <mxCell id="3ibLhJLtpGwH6AKdikq_-1" value="CPU" style="whiteSpace=wrap;html=1;aspect=fixed;" parent="1" vertex="1">
          <mxGeometry x="360" y="560" width="80" height="80" as="geometry" />
        </mxCell>
        <mxCell id="3ibLhJLtpGwH6AKdikq_-13" style="edgeStyle=orthogonalEdgeStyle;rounded=0;orthogonalLoop=1;jettySize=auto;html=1;entryX=1;entryY=0.5;entryDx=0;entryDy=0;" parent="1" source="3ibLhJLtpGwH6AKdikq_-2" target="3ibLhJLtpGwH6AKdikq_-11" edge="1">
          <mxGeometry relative="1" as="geometry">
            <Array as="points" />
          </mxGeometry>
        </mxCell>
        <mxCell id="3ibLhJLtpGwH6AKdikq_-2" value="ADC" style="whiteSpace=wrap;html=1;aspect=fixed;" parent="1" vertex="1">
          <mxGeometry x="240" y="440" width="80" height="80" as="geometry" />
        </mxCell>
        <mxCell id="3ibLhJLtpGwH6AKdikq_-28" style="edgeStyle=orthogonalEdgeStyle;rounded=0;orthogonalLoop=1;jettySize=auto;html=1;entryX=0.319;entryY=1.002;entryDx=0;entryDy=0;entryPerimeter=0;startArrow=classic;startFill=1;endArrow=none;" parent="1" source="3ibLhJLtpGwH6AKdikq_-3" edge="1">
          <mxGeometry relative="1" as="geometry">
            <mxPoint x="589.8000000000002" y="620.1800000000001" as="targetPoint" />
            <Array as="points">
              <mxPoint x="590" y="620" />
            </Array>
          </mxGeometry>
        </mxCell>
        <mxCell id="3ibLhJLtpGwH6AKdikq_-3" value="USART" style="whiteSpace=wrap;html=1;aspect=fixed;" parent="1" vertex="1">
          <mxGeometry x="480" y="560" width="80" height="80" as="geometry" />
        </mxCell>
        <mxCell id="3ibLhJLtpGwH6AKdikq_-10" style="edgeStyle=orthogonalEdgeStyle;rounded=0;orthogonalLoop=1;jettySize=auto;html=1;entryX=1;entryY=0.5;entryDx=0;entryDy=0;" parent="1" source="3ibLhJLtpGwH6AKdikq_-7" target="3ibLhJLtpGwH6AKdikq_-9" edge="1">
          <mxGeometry relative="1" as="geometry" />
        </mxCell>
        <mxCell id="Jo6Je_8409DBKkM-VCLn-1" style="edgeStyle=orthogonalEdgeStyle;rounded=0;orthogonalLoop=1;jettySize=auto;html=1;exitX=0.5;exitY=1;exitDx=0;exitDy=0;entryX=1;entryY=0.5;entryDx=0;entryDy=0;" parent="1" source="3ibLhJLtpGwH6AKdikq_-7" target="3ibLhJLtpGwH6AKdikq_-31" edge="1">
          <mxGeometry relative="1" as="geometry">
            <Array as="points">
              <mxPoint x="280" y="720" />
            </Array>
          </mxGeometry>
        </mxCell>
        <mxCell id="3ibLhJLtpGwH6AKdikq_-7" value="SPI" style="whiteSpace=wrap;html=1;aspect=fixed;" parent="1" vertex="1">
          <mxGeometry x="240" y="560" width="80" height="80" as="geometry" />
        </mxCell>
        <mxCell id="3ibLhJLtpGwH6AKdikq_-9" value="SDcard" style="whiteSpace=wrap;html=1;aspect=fixed;" parent="1" vertex="1">
          <mxGeometry x="130" y="560" width="80" height="80" as="geometry" />
        </mxCell>
        <mxCell id="3ibLhJLtpGwH6AKdikq_-11" value="Batteries" style="whiteSpace=wrap;html=1;aspect=fixed;" parent="1" vertex="1">
          <mxGeometry x="130" y="440" width="80" height="80" as="geometry" />
        </mxCell>
        <mxCell id="3ibLhJLtpGwH6AKdikq_-25" style="edgeStyle=orthogonalEdgeStyle;rounded=0;orthogonalLoop=1;jettySize=auto;html=1;entryX=0;entryY=0.5;entryDx=0;entryDy=0;startArrow=classic;startFill=1;" parent="1" source="3ibLhJLtpGwH6AKdikq_-20" target="3ibLhJLtpGwH6AKdikq_-24" edge="1">
          <mxGeometry relative="1" as="geometry" />
        </mxCell>
        <mxCell id="3ibLhJLtpGwH6AKdikq_-20" value="GPIO" style="whiteSpace=wrap;html=1;aspect=fixed;" parent="1" vertex="1">
          <mxGeometry x="480" y="440" width="80" height="80" as="geometry" />
        </mxCell>
        <mxCell id="3ibLhJLtpGwH6AKdikq_-14" value="GNSS" style="whiteSpace=wrap;html=1;aspect=fixed;" parent="1" vertex="1">
          <mxGeometry x="600" y="680" width="80" height="80" as="geometry" />
        </mxCell>
        <mxCell id="3ibLhJLtpGwH6AKdikq_-24" value="Temperature Sensor" style="whiteSpace=wrap;html=1;aspect=fixed;" parent="1" vertex="1">
          <mxGeometry x="600" y="440" width="80" height="80" as="geometry" />
        </mxCell>
        <mxCell id="3ibLhJLtpGwH6AKdikq_-27" style="edgeStyle=orthogonalEdgeStyle;rounded=0;orthogonalLoop=1;jettySize=auto;html=1;entryX=0.135;entryY=1.002;entryDx=0;entryDy=0;entryPerimeter=0;exitX=1;exitY=0.25;exitDx=0;exitDy=0;" parent="1" source="3ibLhJLtpGwH6AKdikq_-3" edge="1">
          <mxGeometry relative="1" as="geometry">
            <mxPoint x="589.8" y="579.7" as="targetPoint" />
          </mxGeometry>
        </mxCell>
        <mxCell id="3ibLhJLtpGwH6AKdikq_-31" value="IMU" style="whiteSpace=wrap;html=1;aspect=fixed;" parent="1" vertex="1">
          <mxGeometry x="130" y="680" width="80" height="80" as="geometry" />
        </mxCell>
        <mxCell id="3ibLhJLtpGwH6AKdikq_-61" style="edgeStyle=orthogonalEdgeStyle;rounded=0;orthogonalLoop=1;jettySize=auto;html=1;entryX=0.5;entryY=0;entryDx=0;entryDy=0;" parent="1" source="3ibLhJLtpGwH6AKdikq_-60" target="3ibLhJLtpGwH6AKdikq_-1" edge="1">
          <mxGeometry relative="1" as="geometry" />
        </mxCell>
        <mxCell id="3ibLhJLtpGwH6AKdikq_-60" value="Timer" style="whiteSpace=wrap;html=1;aspect=fixed;" parent="1" vertex="1">
          <mxGeometry x="360" y="440" width="80" height="80" as="geometry" />
        </mxCell>
        <mxCell id="3ibLhJLtpGwH6AKdikq_-65" value="Nb-IoT" style="whiteSpace=wrap;html=1;aspect=fixed;" parent="1" vertex="1">
          <mxGeometry x="600" y="560" width="80" height="80" as="geometry" />
        </mxCell>
        <mxCell id="z-boBYuI8Rz079x8D0Px-1" value="STM32" style="text;html=1;align=center;verticalAlign=middle;whiteSpace=wrap;rounded=0;" vertex="1" parent="1">
          <mxGeometry x="370" y="740" width="60" height="30" as="geometry" />
        </mxCell>
      </root>
    </mxGraphModel>
  </diagram>
</mxfile>
